<svg xmlns="http://www.w3.org/2000/svg" xmlns:xlink="http://www.w3.org/1999/xlink" width="317" height="248" viewBox="0 0 317 248">
  <defs>
    <clipPath id="clip-Artboard_17">
      <rect width="317" height="248"/>
    </clipPath>
  </defs>
  <g id="Artboard_17" data-name="Artboard – 17" clip-path="url(#clip-Artboard_17)">
    <rect width="317" height="248" fill="#fff"/>
    <g id="bdcb0c3f6d67999723518ef3c2ad5494" transform="translate(58.56 40.971)">
      <path id="Path_4" data-name="Path 4" d="M172.03,39.315a6.287,6.287,0,0,0-5.21-2.763H166.8l-124.048.283L32.436,5.527A6.3,6.3,0,0,0,26.444,1.2H16.291a6.3,6.3,0,0,0,.017,12.6H21.9L32.17,44.974c.033.1.067.183.1.283L48,93.009,28.425,129.476a6.3,6.3,0,0,0,5.559,9.271H144.767a6.291,6.291,0,1,0,0-12.583H44.5L58.584,99.916h87.93a6.272,6.272,0,0,0,5.842-3.961l20.306-50.748A6.341,6.341,0,0,0,172.03,39.315ZM142.237,87.3H59.35L46.883,49.418l110.6-.25Z" transform="translate(-10 -1.2)"/>
      <path id="Path_5" data-name="Path 5" d="M205.805,897.9a8.405,8.405,0,1,0,8.405,8.406A8.4,8.4,0,0,0,205.805,897.9Z" transform="translate(-166.209 -748.653)"/>
      <path id="Path_6" data-name="Path 6" d="M666.405,897.9a8.405,8.405,0,1,0,8.406,8.406A8.4,8.4,0,0,0,666.405,897.9Z" transform="translate(-550.147 -748.653)"/>
    </g>
    <g id="Group_3" data-name="Group 3" transform="translate(157.312 40.971)">
      <ellipse id="Ellipse_1" data-name="Ellipse 1" cx="50.564" cy="50.564" rx="50.564" ry="50.564" transform="translate(0)" fill="#ff3636"/>
    </g>
  </g>
</svg>
