<svg xmlns="http://www.w3.org/2000/svg" xmlns:xlink="http://www.w3.org/1999/xlink" width="317" height="248" viewBox="0 0 317 248">
  <defs>
    <clipPath id="clip-Artboard_13">
      <rect width="317" height="248"/>
    </clipPath>
  </defs>
  <g id="Artboard_13" data-name="Artboard – 13" clip-path="url(#clip-Artboard_13)">
    <rect width="317" height="248" fill="#fff"/>
    <g id="Group_34" data-name="Group 34" transform="translate(-35.941 -44.476)">
      <circle id="Ellipse_16" data-name="Ellipse 16" cx="83.847" cy="83.847" r="83.847" transform="translate(120.018 75.7)" fill="#ebebeb"/>
      <circle id="Ellipse_17" data-name="Ellipse 17" cx="23.479" cy="23.479" r="23.479" transform="translate(181.74 88.646)" fill="#bcbcbc"/>
      <path id="Path_9" data-name="Path 9" d="M324.052,130.372q0-.044,0-.087a8.313,8.313,0,1,1,8.433,8.312v7.548" transform="translate(-127.145 -23.136)" fill="none" stroke="#fff" stroke-linecap="round" stroke-linejoin="round" stroke-width="4"/>
      <line id="Line_8" data-name="Line 8" x2="16.151" transform="translate(244.715 96.32)" fill="none" stroke="#3086a3" stroke-linecap="round" stroke-miterlimit="10" stroke-width="3"/>
      <line id="Line_9" data-name="Line 9" x2="16.151" transform="translate(244.715 100.975)" fill="none" stroke="#3086a3" stroke-linecap="round" stroke-miterlimit="10" stroke-width="3"/>
      <line id="Line_10" data-name="Line 10" x2="16.151" transform="translate(244.715 105.63)" fill="none" stroke="#3086a3" stroke-linecap="round" stroke-miterlimit="10" stroke-width="3"/>
      <line id="Line_11" data-name="Line 11" x2="16.151" transform="translate(94.457 184.731)" fill="none" stroke="#3086a3" stroke-linecap="round" stroke-miterlimit="10" stroke-width="3"/>
      <line id="Line_12" data-name="Line 12" x2="16.151" transform="translate(94.457 189.386)" fill="none" stroke="#3086a3" stroke-linecap="round" stroke-miterlimit="10" stroke-width="3"/>
      <line id="Line_13" data-name="Line 13" x2="16.151" transform="translate(94.457 194.042)" fill="none" stroke="#3086a3" stroke-linecap="round" stroke-miterlimit="10" stroke-width="3"/>
      <line id="Line_14" data-name="Line 14" x2="16.151" transform="translate(275.701 217.928)" fill="none" stroke="#3086a3" stroke-linecap="round" stroke-miterlimit="10" stroke-width="3"/>
      <line id="Line_15" data-name="Line 15" x2="16.151" transform="translate(275.701 222.583)" fill="none" stroke="#3086a3" stroke-linecap="round" stroke-miterlimit="10" stroke-width="3"/>
      <line id="Line_16" data-name="Line 16" x2="16.151" transform="translate(275.701 227.239)" fill="none" stroke="#3086a3" stroke-linecap="round" stroke-miterlimit="10" stroke-width="3"/>
      <circle id="Ellipse_18" data-name="Ellipse 18" cx="6.904" cy="6.904" r="6.904" transform="translate(288.266 181.195)" fill="#b9d4db"/>
      <circle id="Ellipse_19" data-name="Ellipse 19" cx="3.58" cy="3.58" r="3.58" transform="translate(273.372 189.501)" fill="#b9d4db"/>
      <circle id="Ellipse_20" data-name="Ellipse 20" cx="5.114" cy="5.114" r="5.114" transform="translate(280.927 166.092)" fill="#b9d4db"/>
      <circle id="Ellipse_21" data-name="Ellipse 21" cx="8.214" cy="8.214" r="8.214" transform="translate(129.863 224.473)" fill="#b9d4db"/>
      <circle id="Ellipse_22" data-name="Ellipse 22" cx="4.279" cy="4.279" r="4.279" transform="translate(118.103 222.558)" fill="#b9d4db"/>
      <circle id="Ellipse_23" data-name="Ellipse 23" cx="2.468" cy="2.468" r="2.468" transform="translate(123.843 209.825)" fill="#b9d4db"/>
      <circle id="Ellipse_24" data-name="Ellipse 24" cx="5.916" cy="5.916" r="5.916" transform="translate(134.057 208.123)" fill="#b9d4db"/>
      <circle id="Ellipse_25" data-name="Ellipse 25" cx="8.214" cy="8.214" r="8.214" transform="translate(135.878 101.166)" fill="#b9d4db"/>
      <circle id="Ellipse_26" data-name="Ellipse 26" cx="4.279" cy="4.279" r="4.279" transform="translate(140.147 88.354)" fill="#b9d4db"/>
      <circle id="Ellipse_27" data-name="Ellipse 27" cx="3.703" cy="3.703" r="3.703" transform="translate(169.22 91.429)" fill="#b9d4db"/>
      <circle id="Ellipse_28" data-name="Ellipse 28" cx="2.468" cy="2.468" r="2.468" transform="translate(156.983 89.066)" fill="#b9d4db"/>
      <circle id="Ellipse_29" data-name="Ellipse 29" cx="5.916" cy="5.916" r="5.916" transform="translate(156.403 99.089)" fill="#b9d4db"/>
      <path id="Path_10" data-name="Path 10" d="M337.2,221.743H198.085l-4.536-11.5H337.2a1.361,1.361,0,0,1,1.361,1.361v8.778A1.361,1.361,0,0,1,337.2,221.743Z" transform="translate(-61.894 -67.271)" fill="#c3bcbc"/>
      <path id="Path_11" data-name="Path 11" d="M321.472,293.666h-94.6a2.268,2.268,0,0,1-2.123-1.471l-22.129-58.952H336.9L323.685,291.9a2.268,2.268,0,0,1-2.213,1.77Z" transform="translate(-66.43 -78.771)" fill="#bcbcbc"/>
      <path id="Path_12" data-name="Path 12" d="M341.432,292.17c-9.677.621-19.355.945-29.032,1.166-4.839.138-9.678.169-14.516.25l-14.516.083q-14.516.013-29.033-.329c-9.678-.22-19.355-.546-29.033-1.171,9.677-.624,19.355-.951,29.033-1.171s19.355-.327,29.033-.329l14.516.083c4.839.081,9.678.112,14.516.25C322.077,291.224,331.755,291.549,341.432,292.17Z" transform="translate(-77.77 -107.485)" fill="#fff"/>
      <path id="Path_13" data-name="Path 13" d="M404.281,233.243c-.551,5.273-1.394,10.48-2.324,15.668s-1.994,10.345-3.154,15.481-2.415,10.25-3.783,15.339c-.69,2.543-1.4,5.081-2.167,7.607-.395,1.26-.77,2.525-1.181,3.782l-.316.955a2.459,2.459,0,0,1-.591.929,2.337,2.337,0,0,1-1.907.662,2.187,2.187,0,0,0,1.56-.954,1.957,1.957,0,0,0,.316-.805l.126-.969c.168-1.311.371-2.615.555-3.923.394-2.61.836-5.209,1.3-7.8q1.414-7.777,3.158-15.48t3.787-15.338C401.047,243.309,402.518,238.243,404.281,233.243Z" transform="translate(-159.548 -78.771)" fill="#fff"/>
      <path id="Path_14" data-name="Path 14" d="M287.333,293.666a2.341,2.341,0,0,1-1.962-.729,3.347,3.347,0,0,1-.578-.941l-.448-.929c-.6-1.238-1.16-2.489-1.742-3.733-1.139-2.5-2.232-5.012-3.3-7.535q-3.2-7.575-6.077-15.267t-5.474-15.494c-1.708-5.208-3.33-10.449-4.669-15.8,2.509,4.908,4.737,9.921,6.878,14.967s4.155,10.139,6.073,15.269,3.746,10.293,5.47,15.5c.855,2.6,1.687,5.216,2.472,7.846.38,1.32.78,2.632,1.145,3.957l.273.994a2.944,2.944,0,0,0,.333.888A2.185,2.185,0,0,0,287.333,293.666Z" transform="translate(-96.66 -78.771)" fill="#fff"/>
      <circle id="Ellipse_30" data-name="Ellipse 30" cx="9.372" cy="9.372" r="9.372" transform="translate(174.562 242.507)" fill="#409cb5"/>
      <circle id="Ellipse_31" data-name="Ellipse 31" cx="4.325" cy="4.325" r="4.325" transform="translate(179.608 247.554)" fill="#dbe8ec"/>
      <circle id="Ellipse_32" data-name="Ellipse 32" cx="9.372" cy="9.372" r="9.372" transform="translate(228.621 242.507)" fill="#409cb5"/>
      <circle id="Ellipse_33" data-name="Ellipse 33" cx="4.325" cy="4.325" r="4.325" transform="translate(233.667 247.554)" fill="#dbe8ec"/>
      <path id="Path_15" data-name="Path 15" d="M342.788,233.243c.92,5,1.541,10.014,2.073,15.036s.927,10.051,1.224,15.086.5,10.077.581,15.125c.069,5.049.046,10.1-.277,15.176-.924-5-1.546-10.014-2.077-15.036s-.926-10.051-1.22-15.087-.49-10.077-.576-15.125C342.446,243.37,342.468,238.315,342.788,233.243Z" transform="translate(-136.361 -78.771)" fill="#fff"/>
      <path id="Path_16" data-name="Path 16" d="M275.154,267.85H190.378a1.5,1.5,0,0,1-1.4-.963L139.878,138.9H113.871a1.5,1.5,0,0,1,0-3h27.038a1.5,1.5,0,0,1,1.4.963l49.1,127.989h83.746a1.5,1.5,0,0,1,0,3Z" transform="translate(-21.305 -30.099)" fill="#c3bcbc"/>
      <rect id="Rectangle_25" data-name="Rectangle 25" width="19.8" height="9.18" rx="2" transform="translate(86.81 102.974)" fill="#c3bcbc"/>
      <circle id="Ellipse_34" data-name="Ellipse 34" cx="1.35" cy="1.35" r="1.35" transform="translate(203.869 126.3)" fill="#f9ae2b"/>
    </g>
  </g>
</svg>
