<svg xmlns="http://www.w3.org/2000/svg" xmlns:xlink="http://www.w3.org/1999/xlink" width="317" height="248" viewBox="0 0 317 248">
  <defs>
    <clipPath id="clip-Artboard_12">
      <rect width="317" height="248"/>
    </clipPath>
  </defs>
  <g id="Artboard_12" data-name="Artboard – 12" clip-path="url(#clip-Artboard_12)">
    <rect width="317" height="248" fill="#fff"/>
    <g id="_674aaa8a5939fb3fb007e77121fb1581" data-name="674aaa8a5939fb3fb007e77121fb1581" transform="translate(85.194 50.291)">
      <path id="Path_2" data-name="Path 2" d="M728.562,621.061a74.262,74.262,0,0,0-34.708-54.65,7.374,7.374,0,1,0-7.719,12.566,59.381,59.381,0,0,1,27.781,43.7,7.377,7.377,0,0,0,7.316,6.567,7.55,7.55,0,0,0,.823-.044A7.367,7.367,0,0,0,728.562,621.061Z" transform="translate(-581.996 -481.841)"/>
      <path id="Path_3" data-name="Path 3" d="M127.524,51.522A44.222,44.222,0,1,0,41.547,66.109,7.367,7.367,0,1,0,55.46,61.261,29.492,29.492,0,1,1,83.3,81.009a73.578,73.578,0,0,0-73.26,65.526,7.376,7.376,0,0,0,6.523,8.138,7.582,7.582,0,0,0,.823.045A7.364,7.364,0,0,0,24.7,148.15,58.837,58.837,0,0,1,83.3,95.745,44.271,44.271,0,0,0,127.524,51.522Z" transform="translate(-9.995 -7.3)"/>
    </g>
  </g>
</svg>
