<svg xmlns="http://www.w3.org/2000/svg" xmlns:xlink="http://www.w3.org/1999/xlink" width="317" height="248" viewBox="0 0 317 248">
  <defs>
    <clipPath id="clip-cross">
      <rect width="317" height="248"/>
    </clipPath>
  </defs>
  <g id="cross" clip-path="url(#clip-cross)">
    <rect width="317" height="248" fill="#fff"/>
    <g id="Icon_ionic-ios-close-circle-outline" data-name="Icon ionic-ios-close-circle-outline" transform="translate(58.228 23.728)">
      <path id="Path_6" data-name="Path 6" d="M84.809,74.309l-24.55-24.55,24.55-24.55A7.445,7.445,0,0,0,74.281,14.68l-24.55,24.55L25.18,14.68a7.122,7.122,0,0,0-10.528,0,7.193,7.193,0,0,0,0,10.528L39.2,49.759l-24.55,24.55a7.2,7.2,0,0,0,0,10.528,7.4,7.4,0,0,0,10.528,0l24.55-24.55,24.55,24.55a7.479,7.479,0,0,0,10.528,0A7.4,7.4,0,0,0,84.809,74.309Z" transform="translate(50.542 50.513)"/>
      <path id="Path_7" data-name="Path 7" d="M100.272,16.419a83.867,83.867,0,0,1,59.3,143.156A83.867,83.867,0,0,1,40.969,40.969a83.3,83.3,0,0,1,59.3-24.55m0-13.044a96.9,96.9,0,1,0,96.9,96.9,96.882,96.882,0,0,0-96.9-96.9Z"/>
    </g>
  </g>
</svg>
