<svg xmlns="http://www.w3.org/2000/svg" xmlns:xlink="http://www.w3.org/1999/xlink" width="317" height="248" viewBox="0 0 317 248">
  <defs>
    <clipPath id="clip-Artboard_11">
      <rect width="317" height="248"/>
    </clipPath>
  </defs>
  <g id="Artboard_11" data-name="Artboard – 11" clip-path="url(#clip-Artboard_11)">
    <rect width="317" height="248" fill="#fff"/>
    <g id="Group_33" data-name="Group 33" transform="translate(-1701.077 -46.629)">
      <g id="_6f0a18fad030e38fc7194c6a4c334793" data-name="6f0a18fad030e38fc7194c6a4c334793" transform="translate(1759.5 101)">
        <path id="Path_1" data-name="Path 1" d="M129.276,81.5c-14.375,0-27.735,6.705-37.751,18.9-10.016-12.179-23.359-18.867-37.7-18.867C32.577,81.533,10,97.472,10,127.054c0,30.414,26.97,51.643,46.669,67.15,7.454,5.89,12.928,10.049,17.386,13.443C81.093,213,84.62,215.7,88.43,219.476a4.419,4.419,0,0,0,6.223,0c5.025-5.008,9.6-8.469,21.845-17.752l9.85-7.47c16.3-12.428,46.7-35.522,46.7-67.5C173.049,97.356,150.505,81.5,129.276,81.5ZM53.824,90.335c13.16,0,25.572,7.254,34.041,19.915a4.687,4.687,0,0,0,7.321,0c8.485-12.661,20.9-19.932,34.107-19.932,16.954,0,34.972,12.778,34.972,36.437,0,25.472-22.328,44.589-43.258,60.495l-9.85,7.454c-10.232,7.753-15.207,11.53-19.649,15.573-3.244-2.9-6.855-5.64-12.129-9.65-4.259-3.244-9.75-7.42-17.3-13.393C43.808,172.874,18.8,153.192,18.8,127.054,18.8,103.2,36.853,90.335,53.824,90.335Z" transform="translate(-10 -81.5)" stroke="#000" stroke-width="5"/>
      </g>
      <g id="Group_2" data-name="Group 2" transform="translate(1862.624 101)">
        <circle id="Ellipse_1" data-name="Ellipse 1" cx="48.514" cy="48.514" r="48.514" transform="translate(0)" fill="#e81d1d"/>
      </g>
    </g>
  </g>
</svg>
